<?xml version="1.0" encoding="utf-8"?>
<svg viewBox="0 0 24 24" fill="none" xmlns="http://www.w3.org/2000/svg">
  <path d="M 12.085 1.973 C 12.346 1.595 12.365 1.097 12.135 0.699 C 11.903 0.3 11.463 0.07 11.004 0.109 C 4.9 0.627 0.105 5.742 0.105 11.98 C 0.105 18.561 5.439 23.895 12.02 23.895 C 18.258 23.895 23.373 19.1 23.891 12.996 C 23.93 12.537 23.699 12.097 23.301 11.865 C 22.903 11.635 22.405 11.654 22.027 11.915 C 20.877 12.707 19.482 13.171 17.976 13.171 C 14.028 13.171 10.829 9.972 10.829 6.023 C 10.829 4.518 11.293 3.123 12.085 1.973 Z" fill="#000000" style=""/>
</svg>