<?xml version="1.0" encoding="utf-8"?>
<svg viewBox="0 0 30 30" xmlns="http://www.w3.org/2000/svg">
  <path d="M 14.983 0.124 C 14.397 0.134 13.931 0.615 13.938 1.202 L 13.938 4.386 C 13.926 5.201 14.804 5.725 15.518 5.327 C 15.858 5.137 16.066 4.775 16.061 4.386 L 16.061 1.202 C 16.069 0.603 15.581 0.115 14.983 0.124 Z M 5.231 4.172 C 4.414 4.174 3.905 5.059 4.316 5.766 C 4.364 5.85 4.423 5.927 4.494 5.994 L 6.744 8.245 C 7.31 8.835 8.303 8.59 8.531 7.806 C 8.639 7.426 8.531 7.018 8.245 6.744 L 5.995 4.493 C 5.794 4.287 5.518 4.171 5.231 4.172 Z M 24.734 4.172 C 24.459 4.18 24.198 4.295 24.005 4.493 L 21.754 6.744 C 21.164 7.31 21.409 8.302 22.193 8.529 C 22.573 8.64 22.981 8.53 23.255 8.245 L 25.506 5.994 C 26.092 5.425 25.841 4.434 25.055 4.211 C 24.951 4.182 24.843 4.169 24.734 4.172 Z M 15 7.569 C 10.897 7.569 7.57 10.896 7.57 14.999 C 7.57 19.102 10.897 22.429 15 22.429 C 19.103 22.429 22.43 19.102 22.43 14.999 C 22.43 10.896 19.103 7.569 15 7.569 Z M 1.201 13.938 C 0.384 13.927 -0.139 14.804 0.26 15.517 C 0.45 15.857 0.811 16.066 1.201 16.061 L 4.385 16.061 C 5.203 16.073 5.725 15.195 5.328 14.481 C 5.138 14.141 4.775 13.933 4.385 13.938 L 1.201 13.938 Z M 25.613 13.938 C 24.798 13.927 24.274 14.804 24.672 15.517 C 24.862 15.857 25.224 16.066 25.613 16.061 L 28.797 16.061 C 29.615 16.073 30.138 15.195 29.74 14.481 C 29.55 14.141 29.188 13.933 28.797 13.938 L 25.613 13.938 Z M 7.474 21.432 C 7.198 21.44 6.937 21.556 6.744 21.754 L 4.494 24.004 C 3.904 24.571 4.148 25.563 4.933 25.79 C 5.313 25.9 5.72 25.791 5.995 25.505 L 8.245 23.255 C 8.831 22.685 8.581 21.694 7.794 21.471 C 7.691 21.442 7.582 21.429 7.474 21.432 Z M 22.494 21.432 C 21.677 21.432 21.166 22.316 21.575 23.025 C 21.624 23.109 21.684 23.186 21.754 23.255 L 24.005 25.505 C 24.57 26.095 25.563 25.851 25.791 25.066 C 25.9 24.686 25.791 24.279 25.506 24.004 L 23.255 21.754 C 23.054 21.548 22.781 21.432 22.494 21.432 Z M 14.983 24.537 C 14.397 24.547 13.931 25.028 13.938 25.614 L 13.938 28.798 C 13.926 29.615 14.804 30.138 15.518 29.739 C 15.858 29.549 16.066 29.188 16.061 28.798 L 16.061 25.614 C 16.069 25.015 15.581 24.528 14.983 24.537 Z" style=""/>
</svg>